
<svg width="100" height="100" viewBox="0 0 100 100" fill="none" xmlns="http://www.w3.org/2000/svg">
<g opacity="0.2" clip-path="url(#clip0)">
<path d="M98.6406 86.457L79.166 66.9863C78.2871 66.1074 77.0957 65.6191 75.8457 65.6191H72.6621C78.0527 58.7246 81.2559 50.0547 81.2559 40.6211C81.2559 18.1816 63.0703 0 40.6289 0C18.1875 0 0 18.1816 0 40.6211C0 63.0605 18.1855 81.2422 40.6289 81.2422C50.0625 81.2422 58.7363 78.0391 65.6309 72.6484V75.832C65.6309 77.082 66.1191 78.2734 66.998 79.1523L86.4727 98.623C88.3086 100.459 91.2773 100.459 93.0938 98.623L98.6211 93.0957C100.457 91.2598 100.457 88.293 98.6406 86.457ZM40.6289 68.7422C25.0938 68.7422 12.5039 56.1758 12.5039 40.6211C12.5039 25.0879 25.0723 12.5 40.6289 12.5C56.1641 12.5 68.7539 25.0664 68.7539 40.6211C68.7539 56.1543 56.1855 68.7422 40.6289 68.7422ZM40.6328 21.875C32.668 21.875 26.2109 28.3301 26.2109 36.2949C26.2109 42.7324 35.6367 54.4688 39.248 58.7285C39.4174 58.9312 39.6292 59.0942 39.8685 59.2061C40.1078 59.3179 40.3687 59.3759 40.6328 59.3759C40.8969 59.3759 41.1579 59.3179 41.3971 59.2061C41.6364 59.0942 41.8482 58.9312 42.0176 58.7285C45.6289 54.4688 55.0547 42.7344 55.0547 36.2949C55.0547 28.3301 48.5977 21.875 40.6328 21.875ZM40.6328 40.625C38.043 40.625 35.9453 38.5254 35.9453 35.9375C35.9453 33.3477 38.0449 31.25 40.6328 31.25C43.2207 31.25 45.3203 33.3477 45.3203 35.9375C45.3203 38.5254 43.2207 40.625 40.6328 40.625Z" fill="black"/>
</g>
<defs>
<clipPath id="clip0">
<rect width="100" height="100" fill="white"/>
</clipPath>
</defs>
</svg>
