<svg width="112" height="112" viewBox="0 0 112 112" fill="none" xmlns="http://www.w3.org/2000/svg">
<path opacity="0.21" d="M88.2 76.9983H23.87C23.1 76.9983 22.47 77.7858 22.47 78.7484L22.4525 89.2489C22.4525 90.2114 23.0825 90.999 23.8525 90.999H88.2C88.97 90.999 89.6 90.2114 89.6 89.2489V78.7484C89.6 77.7858 88.97 76.9983 88.2 76.9983ZM88.2 97.9993H23.8175C23.0475 97.9993 22.4175 98.7869 22.4175 99.7494L22.4 110.25C22.4 111.212 23.03 112 23.8 112H88.2C88.97 112 89.6 111.212 89.6 110.25V99.7494C89.6 98.7869 88.97 97.9993 88.2 97.9993ZM88.2 55.9973H23.905C23.135 55.9973 22.505 56.7848 22.505 57.7474L22.4875 68.2479C22.4875 69.2104 23.1175 69.998 23.8875 69.998H88.2C88.97 69.998 89.6 69.2104 89.6 68.2479V57.7474C89.6 56.7848 88.97 55.9973 88.2 55.9973ZM106.838 25.5895L59.22 0.803959C58.1965 0.2732 57.0993 0 55.9913 0C54.8832 0 53.786 0.2732 52.7625 0.803959L5.1625 25.5895C2.0475 27.2302 0 31.0367 0 35.2806V110.25C0 111.212 0.63 112 1.4 112H15.4C16.17 112 16.8 111.212 16.8 110.25V55.9973C16.8 52.1471 19.355 48.9969 22.505 48.9969H89.495C92.645 48.9969 95.2 52.1471 95.2 55.9973V110.25C95.2 111.212 95.83 112 96.6 112H110.6C111.37 112 112 111.212 112 110.25V35.2806C112 31.0367 109.952 27.2302 106.838 25.5895Z" fill="black"/>
</svg>
