<svg width="32" height="32" viewBox="0 0 32 32" fill="none" xmlns="http://www.w3.org/2000/svg">
<path d="M30.543 5.74001L26.465 1.70501C24.66 -0.0719885 21.729 -0.0839887 19.92 1.68501L15.395 6.09901C13.583 7.86701 13.575 10.747 15.375 12.523L17.961 10.039C17.699 9.24801 18.022 8.34201 18.662 7.71501L21.541 4.90801C22.453 4.02301 23.916 4.02701 24.816 4.91801L27.265 7.33801C28.165 8.22901 28.161 9.66401 27.255 10.551L24.376 13.36C23.767 13.954 22.767 14.28 21.991 14.071L19.458 16.557C21.261 18.338 24.19 18.346 26.003 16.577L30.523 12.167C32.34 10.396 32.346 7.51901 30.543 5.74001Z" fill="#F25C05"/>
<path d="M13.975 21.894C14.19 22.667 13.846 23.667 13.223 24.275L10.534 26.902C9.61203 27.802 8.12003 27.797 7.20203 26.89L4.70403 24.429C3.78803 23.523 3.79403 22.05 4.71603 21.154L7.40703 18.527C8.06303 17.89 9.00503 17.566 9.82703 17.838L12.421 15.268C10.585 13.457 7.59703 13.448 5.75303 15.248L1.39003 19.508C-0.45597 21.311 -0.46497 24.242 1.37003 26.057L5.52403 30.164C7.35803 31.973 10.344 31.982 12.192 30.182L16.555 25.922C18.399 24.117 18.407 21.188 16.575 19.375L13.975 21.894Z" fill="#F25C05"/>
<path d="M11.139 20.722C11.75 21.339 12.75 21.345 13.373 20.73L20.828 13.314C21.449 12.697 21.453 11.699 20.836 11.08C20.223 10.465 19.225 10.461 18.606 11.074L11.149 18.488C10.529 19.103 10.525 20.101 11.139 20.722Z" fill="#F25C05"/>
</svg>
